<svg width="382" height="30" viewBox="0 0 382 30" fill="none" xmlns="http://www.w3.org/2000/svg">
<path d="M19.9475 7.12C19.9475 9.06667 19.3342 10.6133 18.1075 11.76C16.8808 12.88 15.2408 13.6 13.1875 13.92V14.08C15.5875 14.4 17.4142 15.1467 18.6675 16.32C19.9208 17.4933 20.5475 19.0267 20.5475 20.92C20.5475 22.6 20.1208 24.08 19.2675 25.36C18.4142 26.6133 17.1342 27.6 15.4275 28.32C13.7208 29.04 11.5875 29.4 9.0275 29.4C7.48083 29.4 6.00083 29.28 4.5875 29.04C3.20083 28.8267 1.9075 28.4267 0.7075 27.84V24.56C1.53417 24.96 2.41417 25.3067 3.3475 25.6C4.3075 25.8667 5.2675 26.08 6.2275 26.24C7.1875 26.3733 8.1075 26.44 8.9875 26.44C11.5475 26.44 13.4808 25.96 14.7875 25C16.1208 24.04 16.7875 22.68 16.7875 20.92C16.7875 19.1067 16.0142 17.7867 14.4675 16.96C12.9208 16.1333 10.7608 15.72 7.9875 15.72H3.9075V12.72H7.7875C9.68083 12.72 11.2408 12.5067 12.4675 12.08C13.7208 11.6533 14.6542 11.0533 15.2675 10.28C15.9075 9.48 16.2275 8.54667 16.2275 7.48C16.2275 6.04 15.6942 4.93333 14.6275 4.16C13.5608 3.38667 12.1742 3 10.4675 3C8.68083 3 7.1875 3.22667 5.9875 3.68C4.81417 4.13333 3.6675 4.72 2.5475 5.44L0.8275 3C1.57417 2.44 2.4275 1.94667 3.3875 1.52C4.37417 1.06666 5.4675 0.706665 6.6675 0.439998C7.8675 0.173332 9.1475 0.0399985 10.5075 0.0399985C12.5608 0.0399985 14.2808 0.346665 15.6675 0.959999C17.0808 1.57333 18.1475 2.41333 18.8675 3.48C19.5875 4.52 19.9475 5.73333 19.9475 7.12ZM34.2231 7.2C36.8365 7.2 38.7698 7.77333 40.0231 8.92C41.2765 10.0667 41.9031 11.8933 41.9031 14.4V29H39.3431L38.6631 25.96H38.5031C37.8898 26.7333 37.2498 27.3867 36.5831 27.92C35.9431 28.4267 35.1965 28.8 34.3431 29.04C33.5165 29.28 32.5031 29.4 31.3031 29.4C30.0231 29.4 28.8631 29.1733 27.8231 28.72C26.8098 28.2667 26.0098 27.5733 25.4231 26.64C24.8365 25.68 24.5431 24.48 24.5431 23.04C24.5431 20.9067 25.3831 19.2667 27.0631 18.12C28.7431 16.9467 31.3298 16.3067 34.8231 16.2L38.4631 16.08V14.8C38.4631 13.0133 38.0765 11.7733 37.3031 11.08C36.5298 10.3867 35.4365 10.04 34.0231 10.04C32.9031 10.04 31.8365 10.2133 30.8231 10.56C29.8098 10.88 28.8631 11.2533 27.9831 11.68L26.9031 9.04C27.8365 8.53333 28.9431 8.10667 30.2231 7.76C31.5031 7.38667 32.8365 7.2 34.2231 7.2ZM35.2631 18.64C32.5965 18.7467 30.7431 19.1733 29.7031 19.92C28.6898 20.6667 28.1831 21.72 28.1831 23.08C28.1831 24.28 28.5431 25.16 29.2631 25.72C30.0098 26.28 30.9565 26.56 32.1031 26.56C33.9165 26.56 35.4231 26.0667 36.6231 25.08C37.8231 24.0667 38.4231 22.52 38.4231 20.44V18.52L35.2631 18.64ZM66.645 7.56V29H63.125V10.56H52.045V29H48.525V7.56H66.645ZM76.5659 15.36C76.5659 16.6133 76.9126 17.5467 77.6059 18.16C78.3259 18.7467 79.3526 19.04 80.6859 19.04C82.0193 19.04 83.2326 18.84 84.3259 18.44C85.4193 18.0133 86.5393 17.4533 87.6859 16.76V7.56H91.2059V29H87.6859V19.44C86.4859 20.2133 85.2993 20.8267 84.1259 21.28C82.9793 21.7067 81.5926 21.92 79.9659 21.92C77.7793 21.92 76.0726 21.3467 74.8459 20.2C73.6459 19.0533 73.0459 17.52 73.0459 15.6V7.56H76.5659V15.36ZM106.137 7.2C108.751 7.2 110.684 7.77333 111.937 8.92C113.191 10.0667 113.817 11.8933 113.817 14.4V29H111.257L110.577 25.96H110.417C109.804 26.7333 109.164 27.3867 108.497 27.92C107.857 28.4267 107.111 28.8 106.257 29.04C105.431 29.28 104.417 29.4 103.217 29.4C101.937 29.4 100.777 29.1733 99.7372 28.72C98.7239 28.2667 97.9239 27.5733 97.3372 26.64C96.7505 25.68 96.4572 24.48 96.4572 23.04C96.4572 20.9067 97.2972 19.2667 98.9772 18.12C100.657 16.9467 103.244 16.3067 106.737 16.2L110.377 16.08V14.8C110.377 13.0133 109.991 11.7733 109.217 11.08C108.444 10.3867 107.351 10.04 105.937 10.04C104.817 10.04 103.751 10.2133 102.737 10.56C101.724 10.88 100.777 11.2533 99.8972 11.68L98.8172 9.04C99.7505 8.53333 100.857 8.10667 102.137 7.76C103.417 7.38667 104.751 7.2 106.137 7.2ZM107.177 18.64C104.511 18.7467 102.657 19.1733 101.617 19.92C100.604 20.6667 100.097 21.72 100.097 23.08C100.097 24.28 100.457 25.16 101.177 25.72C101.924 26.28 102.871 26.56 104.017 26.56C105.831 26.56 107.337 26.0667 108.537 25.08C109.737 24.0667 110.337 22.52 110.337 20.44V18.52L107.177 18.64ZM129.039 29.4C127.146 29.4 125.452 29.0133 123.959 28.24C122.492 27.4667 121.332 26.2667 120.479 24.64C119.652 23.0133 119.239 20.9333 119.239 18.4C119.239 15.76 119.679 13.6133 120.559 11.96C121.439 10.3067 122.626 9.09333 124.119 8.32C125.639 7.54667 127.359 7.16 129.279 7.16C130.372 7.16 131.426 7.28 132.439 7.52C133.452 7.73333 134.279 8 134.919 8.32L133.839 11.24C133.199 11 132.452 10.7733 131.599 10.56C130.746 10.3467 129.946 10.24 129.199 10.24C127.759 10.24 126.572 10.5467 125.639 11.16C124.706 11.7733 124.012 12.68 123.559 13.88C123.106 15.08 122.879 16.5733 122.879 18.36C122.879 20.0667 123.106 21.52 123.559 22.72C124.012 23.92 124.692 24.8267 125.599 25.44C126.506 26.0533 127.639 26.36 128.999 26.36C130.172 26.36 131.199 26.24 132.079 26C132.986 25.76 133.812 25.4667 134.559 25.12V28.24C133.839 28.6133 133.039 28.8933 132.159 29.08C131.306 29.2933 130.266 29.4 129.039 29.4ZM154.458 10.52H147.458V29H143.978V10.52H137.058V7.56H154.458V10.52ZM162.001 20.64C162.001 20.88 161.988 21.2267 161.961 21.68C161.961 22.1067 161.948 22.5733 161.921 23.08C161.895 23.56 161.868 24.0267 161.841 24.48C161.815 24.9067 161.788 25.2533 161.761 25.52L173.241 7.56H177.561V29H174.281V16.36C174.281 15.9333 174.281 15.3733 174.281 14.68C174.308 13.9867 174.335 13.3067 174.361 12.64C174.388 11.9467 174.415 11.4267 174.441 11.08L163.041 29H158.681V7.56H162.001V20.64Z" fill="white"/>
<path d="M212.683 12.88C212.683 14.0533 212.31 15.0533 211.563 15.88C210.843 16.7067 209.763 17.24 208.323 17.48V17.64C209.843 17.8267 211.056 18.3467 211.963 19.2C212.896 20.0533 213.363 21.1467 213.363 22.48C213.363 23.4133 213.176 24.28 212.803 25.08C212.456 25.88 211.896 26.5733 211.123 27.16C210.35 27.7467 209.35 28.2 208.123 28.52C206.923 28.84 205.456 29 203.723 29H193.323V7.16H203.723C205.43 7.16 206.95 7.34667 208.283 7.72C209.643 8.06667 210.71 8.65333 211.483 9.48C212.283 10.3067 212.683 11.44 212.683 12.88ZM207.203 22.16C207.203 21.3067 206.87 20.6933 206.203 20.32C205.536 19.92 204.536 19.72 203.203 19.72H199.283V24.88H203.323C204.443 24.88 205.363 24.68 206.083 24.28C206.83 23.8533 207.203 23.1467 207.203 22.16ZM206.643 13.36C206.643 12.6667 206.376 12.16 205.843 11.84C205.31 11.52 204.523 11.36 203.483 11.36H199.283V15.68H202.803C204.056 15.68 205.003 15.5067 205.643 15.16C206.31 14.7867 206.643 14.1867 206.643 13.36ZM233.658 7.16V15.56H241.978V7.16H247.938V29H241.978V20H233.658V29H227.698V7.16H233.658ZM263.143 6.72C266.076 6.72 268.316 7.36 269.863 8.64C271.436 9.89333 272.223 11.8267 272.223 14.44V29H268.063L266.903 26.04H266.743C266.129 26.8133 265.489 27.4533 264.823 27.96C264.183 28.4667 263.436 28.8267 262.583 29.04C261.756 29.28 260.729 29.4 259.503 29.4C258.223 29.4 257.063 29.16 256.023 28.68C255.009 28.1733 254.209 27.4133 253.623 26.4C253.036 25.36 252.743 24.0533 252.743 22.48C252.743 20.16 253.556 18.4533 255.183 17.36C256.809 16.24 259.249 15.6267 262.503 15.52L266.303 15.4V14.44C266.303 13.2933 265.996 12.4533 265.383 11.92C264.796 11.3867 263.969 11.12 262.903 11.12C261.836 11.12 260.796 11.28 259.783 11.6C258.769 11.8933 257.756 12.2667 256.743 12.72L254.783 8.68C255.956 8.06667 257.249 7.58667 258.663 7.24C260.103 6.89333 261.596 6.72 263.143 6.72ZM263.983 18.96C262.063 19.0133 260.729 19.36 259.983 20C259.236 20.64 258.863 21.48 258.863 22.52C258.863 23.4267 259.129 24.08 259.663 24.48C260.196 24.8533 260.889 25.04 261.743 25.04C263.023 25.04 264.103 24.6667 264.983 23.92C265.863 23.1467 266.303 22.0667 266.303 20.68V18.88L263.983 18.96ZM297.883 29H291.923V11.64H286.443C286.176 14.84 285.843 17.5733 285.443 19.84C285.07 22.08 284.59 23.9067 284.003 25.32C283.443 26.7333 282.723 27.7733 281.843 28.44C280.963 29.08 279.883 29.4 278.603 29.4C277.91 29.4 277.283 29.3467 276.723 29.24C276.163 29.1333 275.656 28.9733 275.203 28.76V24C275.496 24.1067 275.803 24.2 276.123 24.28C276.443 24.36 276.776 24.4 277.123 24.4C277.496 24.4 277.843 24.2533 278.163 23.96C278.51 23.6667 278.83 23.1467 279.123 22.4C279.443 21.6533 279.736 20.6267 280.003 19.32C280.27 18.0133 280.51 16.3733 280.723 14.4C280.963 12.4 281.176 9.98667 281.363 7.16H297.883V29ZM309.864 15.8C309.864 16.2533 309.838 16.8133 309.784 17.48C309.758 18.1467 309.718 18.8267 309.664 19.52C309.638 20.2133 309.598 20.8267 309.544 21.36C309.491 21.8933 309.451 22.2667 309.424 22.48L319.504 7.16H326.664V29H320.904V20.28C320.904 19.56 320.931 18.7733 320.984 17.92C321.038 17.04 321.091 16.2267 321.144 15.48C321.224 14.7067 321.278 14.12 321.304 13.72L311.264 29H304.104V7.16H309.864V15.8ZM338.133 15.16C338.133 16.0933 338.36 16.8 338.813 17.28C339.293 17.76 339.947 18 340.773 18C341.92 18 342.987 17.88 343.973 17.64C344.96 17.3733 345.947 17.0267 346.933 16.6V7.16H352.893V29H346.933V20.32C346 20.8267 344.933 21.2933 343.733 21.72C342.533 22.12 341.173 22.32 339.653 22.32C337.387 22.32 335.573 21.7333 334.213 20.56C332.853 19.3867 332.173 17.6267 332.173 15.28V7.16H338.133V15.16ZM364.903 15.8C364.903 16.2533 364.877 16.8133 364.823 17.48C364.797 18.1467 364.757 18.8267 364.703 19.52C364.677 20.2133 364.637 20.8267 364.583 21.36C364.53 21.8933 364.49 22.2667 364.463 22.48L374.543 7.16H381.703V29H375.943V20.28C375.943 19.56 375.97 18.7733 376.023 17.92C376.077 17.04 376.13 16.2267 376.183 15.48C376.263 14.7067 376.317 14.12 376.343 13.72L366.303 29H359.143V7.16H364.903V15.8Z" fill="#FF0000"/>
</svg>
